M48
; DRILL file {KiCad 9.0.6} date 2025-12-01T12:38:37-0500
; FORMAT={-:-/ absolute / metric / decimal}
; #@! TF.CreationDate,2025-12-01T12:38:37-05:00
; #@! TF.GenerationSoftware,Kicad,Pcbnew,9.0.6
; #@! TF.FileFunction,Plated,1,2,PTH
FMAT,2
METRIC
; #@! TA.AperFunction,Plated,PTH,ComponentDrill
T1C0.800
; #@! TA.AperFunction,Plated,PTH,ComponentDrill
T2C0.950
; #@! TA.AperFunction,Plated,PTH,ComponentDrill
T3C1.000
%
G90
G05
T1
X138.5Y-97.88
X138.5Y-113.12
X141.26Y-93.0
X144.88Y-102.0
X156.5Y-93.0
X160.12Y-102.0
X161.5Y-80.88
X161.5Y-96.12
T2
X145.0Y-83.5
X145.0Y-110.0
X147.5Y-83.5
X147.5Y-110.0
X150.0Y-83.5
X150.0Y-110.0
X152.5Y-83.5
X152.5Y-110.0
X155.0Y-83.5
X155.0Y-110.0
X169.0Y-92.0
X169.0Y-94.5
X169.0Y-97.0
X169.0Y-99.5
X169.0Y-102.0
T3
X131.025Y-95.75
X131.025Y-98.25
M30
