%TF.GenerationSoftware,KiCad,Pcbnew,9.0.6*%
%TF.CreationDate,2025-12-01T12:38:21-05:00*%
%TF.ProjectId,pcb sensores,70636220-7365-46e7-936f-7265732e6b69,rev?*%
%TF.SameCoordinates,Original*%
%TF.FileFunction,Copper,L2,Bot*%
%TF.FilePolarity,Positive*%
%FSLAX46Y46*%
G04 Gerber Fmt 4.6, Leading zero omitted, Abs format (unit mm)*
G04 Created by KiCad (PCBNEW 9.0.6) date 2025-12-01 12:38:21*
%MOMM*%
%LPD*%
G01*
G04 APERTURE LIST*
G04 Aperture macros list*
%AMRoundRect*
0 Rectangle with rounded corners*
0 $1 Rounding radius*
0 $2 $3 $4 $5 $6 $7 $8 $9 X,Y pos of 4 corners*
0 Add a 4 corners polygon primitive as box body*
4,1,4,$2,$3,$4,$5,$6,$7,$8,$9,$2,$3,0*
0 Add four circle primitives for the rounded corners*
1,1,$1+$1,$2,$3*
1,1,$1+$1,$4,$5*
1,1,$1+$1,$6,$7*
1,1,$1+$1,$8,$9*
0 Add four rect primitives between the rounded corners*
20,1,$1+$1,$2,$3,$4,$5,0*
20,1,$1+$1,$4,$5,$6,$7,0*
20,1,$1+$1,$6,$7,$8,$9,0*
20,1,$1+$1,$8,$9,$2,$3,0*%
G04 Aperture macros list end*
%TA.AperFunction,ComponentPad*%
%ADD10C,1.600000*%
%TD*%
%TA.AperFunction,ComponentPad*%
%ADD11RoundRect,0.250000X-0.750000X0.600000X-0.750000X-0.600000X0.750000X-0.600000X0.750000X0.600000X0*%
%TD*%
%TA.AperFunction,ComponentPad*%
%ADD12O,2.000000X1.700000*%
%TD*%
%TA.AperFunction,ComponentPad*%
%ADD13RoundRect,0.250000X-0.725000X0.600000X-0.725000X-0.600000X0.725000X-0.600000X0.725000X0.600000X0*%
%TD*%
%TA.AperFunction,ComponentPad*%
%ADD14O,1.950000X1.700000*%
%TD*%
%TA.AperFunction,ComponentPad*%
%ADD15RoundRect,0.250000X-0.600000X-0.725000X0.600000X-0.725000X0.600000X0.725000X-0.600000X0.725000X0*%
%TD*%
%TA.AperFunction,ComponentPad*%
%ADD16O,1.700000X1.950000*%
%TD*%
%TA.AperFunction,Conductor*%
%ADD17C,0.600000*%
%TD*%
G04 APERTURE END LIST*
D10*
%TO.P,R2,1*%
%TO.N,GND*%
X160120000Y-102000000D03*
%TO.P,R2,2*%
%TO.N,/echo1_esp*%
X144880000Y-102000000D03*
%TD*%
%TO.P,R1,1*%
%TO.N,Net-(J2_us1-echo1_raw)*%
X138500000Y-113120000D03*
%TO.P,R1,2*%
%TO.N,/echo1_esp*%
X138500000Y-97880000D03*
%TD*%
D11*
%TO.P,J_pwr1,1,5V_in*%
%TO.N,+5V*%
X131025000Y-95750000D03*
D12*
%TO.P,J_pwr1,2,Pin_2*%
%TO.N,GND*%
X131025000Y-98250000D03*
%TD*%
D10*
%TO.P,R3,1*%
%TO.N,/echo2_esp*%
X161500000Y-96120000D03*
%TO.P,R3,2*%
%TO.N,Net-(J3_us2-echo2_raw)*%
X161500000Y-80880000D03*
%TD*%
%TO.P,R4,1*%
%TO.N,/echo2_esp*%
X156500000Y-93000000D03*
%TO.P,R4,2*%
%TO.N,GND*%
X141260000Y-93000000D03*
%TD*%
D13*
%TO.P,J4_coneccion_esp1,1,echo1_esp*%
%TO.N,/echo1_esp*%
X169000000Y-92000000D03*
D14*
%TO.P,J4_coneccion_esp1,2,trig1_esp*%
%TO.N,/trig1_esp*%
X169000000Y-94500000D03*
%TO.P,J4_coneccion_esp1,3,echo2_esp*%
%TO.N,/echo2_esp*%
X169000000Y-97000000D03*
%TO.P,J4_coneccion_esp1,4,trig2_esp*%
%TO.N,/trig2_esp*%
X169000000Y-99500000D03*
%TO.P,J4_coneccion_esp1,5,GND_esp*%
%TO.N,GND*%
X169000000Y-102000000D03*
%TD*%
D15*
%TO.P,J3_us2,1,GND_us2*%
%TO.N,GND*%
X145000000Y-83500000D03*
D16*
%TO.P,J3_us2,2,out2*%
%TO.N,unconnected-(J3_us2-out2-Pad2)*%
X147500000Y-83500000D03*
%TO.P,J3_us2,3,echo2_raw*%
%TO.N,Net-(J3_us2-echo2_raw)*%
X150000000Y-83500000D03*
%TO.P,J3_us2,4,trig2_raw*%
%TO.N,/trig2_esp*%
X152500000Y-83500000D03*
%TO.P,J3_us2,5,vcc_us2*%
%TO.N,+5V*%
X155000000Y-83500000D03*
%TD*%
D15*
%TO.P,J2_us1,1,vcc_us1*%
%TO.N,+5V*%
X145000000Y-110000000D03*
D16*
%TO.P,J2_us1,2,trig1_raw*%
%TO.N,/trig1_esp*%
X147500000Y-110000000D03*
%TO.P,J2_us1,3,echo1_raw*%
%TO.N,Net-(J2_us1-echo1_raw)*%
X150000000Y-110000000D03*
%TO.P,J2_us1,4,out1*%
%TO.N,unconnected-(J2_us1-out1-Pad4)*%
X152500000Y-110000000D03*
%TO.P,J2_us1,5,GND_us1*%
%TO.N,GND*%
X155000000Y-110000000D03*
%TD*%
D17*
%TO.N,GND*%
X160120000Y-102000000D02*
X169000000Y-102000000D01*
X155000000Y-110000000D02*
X155000000Y-101500000D01*
X155000000Y-101500000D02*
X155500000Y-102000000D01*
X155500000Y-102000000D02*
X160120000Y-102000000D01*
X146500000Y-93000000D02*
X155000000Y-101500000D01*
X146000000Y-93000000D02*
X146500000Y-93000000D01*
X145000000Y-93000000D02*
X146000000Y-93000000D01*
X145000000Y-93000000D02*
X145000000Y-83500000D01*
X146000000Y-93000000D02*
X145500000Y-93000000D01*
X141260000Y-93000000D02*
X145000000Y-93000000D01*
X138000000Y-93000000D02*
X141260000Y-93000000D01*
X131025000Y-98250000D02*
X132750000Y-98250000D01*
X132750000Y-98250000D02*
X138000000Y-93000000D01*
%TD*%
M02*
